Coordinates
version=1
nRows=13
nColumns=27
inDegrees=yes

Units are S.I. units (second, meters, Newtons, ...)
If the header above contains a line with 'inDegrees', this indicates whether rotational values are in degrees (yes) or radians (no).

endheader
time	pelvis_rotation	pelvis_tilt	pelvis_list	pelvis_tx	pelvis_ty	pelvis_tz	hip_flexion_r	hip_adduction_r	hip_rotation_r	knee_angle_r	knee_rotation_r	knee_adduction_r	knee_angle_r_beta	ankle_angle_r	subtalar_angle_r	mtp_angle_r	hip_flexion_l	hip_adduction_l	hip_rotation_l	knee_angle_l	knee_rotation_l	knee_adduction_l	knee_angle_l_beta	ankle_angle_l	subtalar_angle_l	mtp_angle_l
      3.27500000	     10.28146075	    -29.62752414	      5.04596151	     -0.03036250	      0.55368274	     -1.18241450	    108.65921235	    -47.95663790	     14.11258862	     95.15618224	      0.00000000	      9.92129527	      1.66078868	     15.89251729	      0.00000000	      0.00000000	    105.32568078	    -25.62214048	      9.14759010	     89.91863177	      0.00000000	     -9.94560358	      1.56937618	     12.95691231	      0.00000000	      0.00000000
      3.28000000	     10.25681302	    -29.58490911	      5.02428879	     -0.03028640	      0.55215379	     -1.18240628	    108.90332627	    -47.94565121	     14.34780764	     95.39336468	      0.00000000	      9.92170078	      1.66492830	     15.92082724	      0.00000000	      0.00000000	    105.51220526	    -25.65279908	      9.29489893	     90.16466669	      0.00000000	     -9.94579696	      1.57367030	     13.01705529	      0.00000000	      0.00000000
      3.28500000	     10.20689998	    -29.54953218	      4.94443832	     -0.03016921	      0.55065864	     -1.18236097	    109.05766692	    -47.92565970	     14.47920231	     95.62260513	      0.00000000	      9.92192474	      1.66892930	     15.99336592	      0.00000000	      0.00000000	    105.73356506	    -25.69653720	      9.49876449	     90.41279524	      0.00000000	     -9.94599572	      1.57800096	     13.09155279	      0.00000000	      0.00000000
      3.29000000	     10.19030240	    -29.49567445	      4.88200729	     -0.03001124	      0.54918139	     -1.18232517	    109.21539709	    -47.95341593	     14.62318019	     95.85197482	      0.00000000	      9.92222593	      1.67293256	     16.05481196	      0.00000000	      0.00000000	    105.92379281	    -25.70404491	      9.69164781	     90.65812236	      0.00000000	     -9.94620067	      1.58228273	     13.17249725	      0.00000000	      0.00000000
      3.29500000	     10.14763459	    -29.50459447	      4.82731668	     -0.02994614	      0.54762327	     -1.18232720	    109.47653478	    -47.93157651	     14.81091670	     96.09288319	      0.00000000	      9.92250161	      1.67713720	     16.09000325	      0.00000000	      0.00000000	    106.18918940	    -25.73368102	      9.88722723	     90.92263193	      0.00000000	     -9.94635427	      1.58689929	     13.23964389	      0.00000000	      0.00000000
      3.30000000	     10.09105938	    -29.42242427	      4.76918299	     -0.02978011	      0.54610116	     -1.18227532	    109.61510972	    -47.90108696	     14.98255730	     96.32884434	      0.00000000	      9.92271852	      1.68125550	     16.15950083	      0.00000000	      0.00000000	    106.34566481	    -25.78903150	     10.06302268	     91.16731295	      0.00000000	     -9.94654037	      1.59116978	     13.31912358	      0.00000000	      0.00000000
      3.30500000	     10.05287821	    -29.38610208	      4.70768950	     -0.02964226	      0.54458194	     -1.18226230	    109.79951871	    -47.89531103	     15.14677194	     96.55871289	      0.00000000	      9.92301220	      1.68526746	     16.21533199	      0.00000000	      0.00000000	    106.55527281	    -25.80434630	     10.26331059	     91.41797575	      0.00000000	     -9.94674031	      1.59554467	     13.38893317	      0.00000000	      0.00000000
      3.31000000	     10.02891681	    -29.34196768	      4.66204552	     -0.02950338	      0.54301302	     -1.18226432	    110.00771896	    -47.89967104	     15.33707154	     96.80085815	      0.00000000	      9.92327504	      1.68949369	     16.27723186	      0.00000000	      0.00000000	    106.75735816	    -25.81004871	     10.45120131	     91.67244711	      0.00000000	     -9.94691114	      1.59998604	     13.46837100	      0.00000000	      0.00000000
      3.31500000	     10.03928177	    -29.19539821	      4.49905562	     -0.02917861	      0.54157893	     -1.18228761	    109.91743243	    -48.02900942	     15.29881030	     96.99922336	      0.00000000	      9.92361992	      1.69295582	     16.31972422	      0.00000000	      0.00000000	    106.91014886	    -25.74904668	     10.75607044	     91.92436008	      0.00000000	     -9.94715326	      1.60438275	     13.51176729	      0.00000000	      0.00000000
      3.32000000	      9.94205700	    -29.23251298	      4.52809255	     -0.02917081	      0.53990426	     -1.18227120	    110.33471866	    -47.87767412	     15.66622737	     97.26663744	      0.00000000	      9.92387382	      1.69762308	     16.39958640	      0.00000000	      0.00000000	    107.15000637	    -25.84493172	     10.86675986	     92.18773791	      0.00000000	     -9.94731537	      1.60897956	     13.64943977	      0.00000000	      0.00000000
      3.32500000	      9.89269936	    -29.15895608	      4.47276979	     -0.02898090	      0.53830111	     -1.18226448	    110.51356630	    -47.86700853	     15.85470294	     97.51563738	      0.00000000	      9.92411372	      1.70196894	     16.44248744	      0.00000000	      0.00000000	    107.32977411	    -25.87568991	     11.05954950	     92.45142790	      0.00000000	     -9.94748195	      1.61358181	     13.70883241	      0.00000000	      0.00000000
      3.33000000	      9.83346008	    -29.10007559	      4.42284363	     -0.02878588	      0.53671960	     -1.18228209	    110.69582984	    -47.83399089	     16.05013477	     97.75097296	      0.00000000	      9.92438273	      1.70607633	     16.51192724	      0.00000000	      0.00000000	    107.50968146	    -25.91696176	     11.24345270	     92.70903443	      0.00000000	     -9.94769040	      1.61807790	     13.78923771	      0.00000000	      0.00000000
      3.33500000	      9.77543502	    -29.03423590	      4.35527330	     -0.02858484	      0.53512806	     -1.18229526	    110.85327596	    -47.81163176	     16.22231350	     97.98712497	      0.00000000	      9.92468321	      1.71019796	     16.57160010	      0.00000000	      0.00000000	    107.69651164	    -25.95149532	     11.44695197	     92.97060264	      0.00000000	     -9.94790802	      1.62264312	     13.86608944	      0.00000000	      0.00000000
